<?xml version="1.0" encoding="UTF-8" standalone="no"?>
<!-- Created with Inkscape (http://www.inkscape.org/) -->

<svg
   width="720"
   height="720"
   viewBox="0 0 720 720"
   version="1.1"
   id="svg1"
   xml:space="preserve"
   xmlns="http://www.w3.org/2000/svg"
   xmlns:svg="http://www.w3.org/2000/svg"><defs
     id="defs1"><radialGradient
       id="c"
       cx="0"
       cy="0"
       r="1"
       gradientTransform="matrix(-347,-399.3,287.3,-249.8,655,722)"
       gradientUnits="userSpaceOnUse"><stop
         stop-color="#00CACC"
         id="stop3-3" /><stop
         offset="1"
         stop-color="#048FCE"
         id="stop4-6" /></radialGradient><radialGradient
       id="b"
       cx="0"
       cy="0"
       r="1"
       gradientTransform="matrix(526,-225.4,375.6,876.6,88.8,915.1)"
       gradientUnits="userSpaceOnUse"><stop
         stop-color="#00BBEC"
         id="stop5-7" /><stop
         offset="1"
         stop-color="#2756A9"
         id="stop6-5" /></radialGradient><linearGradient
       id="a"
       x1="118.4"
       x2="118.4"
       y1="0"
       y2="884.40002"
       gradientUnits="userSpaceOnUse"><stop
         stop-color="#00BBEC"
         id="stop7-3" /><stop
         offset="1"
         stop-color="#2756A9"
         id="stop8-5" /></linearGradient></defs><g
     style="fill:none"
     id="g1"
     transform="matrix(0.70341985,0,0,0.70341985,122.15873,-0.18838939)"><path
       fill="url(#a)"
       d="m 0,778.3 c 14.6,123.8 223.8,143 236.8,79.9 -0.3,-0.4 -0.5,-678.1 -0.5,-678.1 -3.6,-46 -26.2,-72 -61.6,-96.5 C 141.7,60.9 100.3,33.2 77.8,17.2 14.2,-28 0.1,31.4 0,33.2 c 0,0 0.3,746.4 0,745.1 z"
       id="path1"
       style="fill:url(#a)" /><path
       fill="url(#b)"
       d="M 236.8,832.8 C 140.6,905.3 19.8,875.5 2.4,788.8 1.6,784.6 0,778.4 0,778.4 c 0,0 0.9,8.5 2,16.6 1.2,8.5 3.7,20.8 6.3,31.3 30,117.8 132.1,186 230.4,196.6 134.6,11.9 258.7,-91.9 360.3,-167.1 6.3,-6.2 15.4,-16.2 18.1,-20.1 66.2,-95 -13.6,-197 -72.5,-193 A 59154,59154 0 0 0 236.9,832.8 Z"
       id="path2"
       style="fill:url(#b)" /><path
       fill="url(#c)"
       fill-rule="evenodd"
       d="m 312.8,381 c 7.4,47 34.6,108.7 59.6,172.6 20.2,41.3 62,53.4 103,65.5 42.4,12.6 65.6,21 85.6,30.9 138.5,68.7 38.5,207.7 59.6,181.4 89,-110.7 79.7,-325.4 -90,-418.1 -57.6,-28.7 -115.4,-66.6 -156.5,-83.6 -41,-17 -68.7,4.3 -61.3,51.3 z"
       clip-rule="evenodd"
       id="path3"
       style="fill:url(#c)" /></g></svg>
