<?xml version="1.0" encoding="UTF-8" standalone="no"?>
<svg
   version="1.1"
   id="Layer_1"
   x="0px"
   y="0px"
   viewBox="0 0 119.99999 120"
   width="169.70563"
   height="169.70563"
   xml:space="preserve"
   xmlns="http://www.w3.org/2000/svg"
   xmlns:svg="http://www.w3.org/2000/svg">
<defs id="defs25" />

<g
   id="g23"
   style="display:inline"
   transform="translate(-67,-19)">

		<g
   id="g11"
   style="display:inline">

			<circle
   fill="#DE5833"
   cx="127"
   cy="79"
   r="60"
   id="circle1" />

			<path
   fill="#FFFFFF"
   d="M 177.8,57.5 C 175,50.9 171,45 166,40 c -5.1,-5.1 -11,-9 -17.5,-11.8 -6.8,-2.9 -14,-4.3 -21.5,-4.3 -7.4,0 -14.7,1.5 -21.5,4.3 C 98.9,30.9 93,34.9 88,40 c -5.1,5.1 -9,11 -11.8,17.5 -2.9,6.8 -4.3,14 -4.3,21.5 0,7.5 1.5,14.7 4.3,21.5 2.8,6.6 6.8,12.5 11.8,17.5 5.1,5.1 11,9 17.5,11.8 6.8,2.9 14,4.3 21.5,4.3 7.4,0 14.7,-1.5 21.5,-4.3 6.5,-2.8 12.4,-6.8 17.5,-11.8 5.1,-5.1 9,-11 11.8,-17.5 2.9,-6.8 4.3,-14 4.3,-21.5 0,-7.5 -1.4,-14.7 -4.3,-21.5 z m -38.8,71 c -3.2,-5.4 -11.6,-20.5 -11.6,-31.7 0,-25.8 17.3,-3.7 17.3,-24.3 0,-4.9 -2.4,-22.1 -17.4,-25.7 -3.7,-4.9 -12.4,-9.6 -26.2,-7.7 0,0 2.3,0.7 4.9,2 0,0 -5,0.7 -5.2,4.1 0,0 9.9,-0.5 15.5,1.3 C 103.4,48.2 96.8,55 98,67.3 99.7,84.8 107.1,116 109.7,126.9 90.1,119.9 76,101.1 76,79 76,50.9 98.8,28 127,28 c 28.2,0 51,22.8 51,51 -0.1,24 -16.7,44.1 -39,49.5 z"
   id="path1" />

			<path
   id="Beak_2_"
   fill="#FED30A"
   d="m 124.2,87.3 c 0,-6.6 9,-8.7 12.4,-8.7 9.2,0 22.2,-5.9 25.4,-5.8 3.3,0.1 5.4,1.4 5.4,2.9 0,2.2 -18.4,10.5 -25.5,9.8 -6.8,-0.6 -8.4,0.1 -8.4,2.9 0,2.4 4.9,4.6 10.3,4.6 8.1,0 16,-3.6 18.4,-1.9 2.1,1.5 -5.5,6.9 -14.2,6.9 -8.7,0 -23.8,-4.1 -23.8,-10.7 z" />

			<g id="g5">
				<path
   fill="#2D4F8D"
   d="m 140.2,59.3 c -2.4,-3.1 -6.7,-3.2 -8.2,0.4 2.3,-1.8 5.1,-2.2 8.2,-0.4 z"
   id="path2" />
				<path
   fill="#2D4F8D"
   d="m 113.5,59.4 c -3.3,-2 -8.8,-2.2 -8.5,4.1 1.6,-3.9 3.8,-4.6 8.5,-4.1 z"
   id="path3" />
				<path
   fill="#2D4F8D"
   d="m 138.2,65.2 c -1.8,0 -3.3,1.5 -3.3,3.3 0,1.8 1.5,3.3 3.3,3.3 1.8,0 3.3,-1.5 3.3,-3.3 0,-1.8 -1.5,-3.3 -3.3,-3.3 z m 1.2,3.1 c -0.5,0 -1,-0.4 -1,-1 0,-0.5 0.4,-1 1,-1 0.6,0 1,0.4 1,1 -0.1,0.5 -0.5,1 -1,1 z"
   id="path4" />
				<path
   fill="#2D4F8D"
   d="m 112.6,67 c -2.1,0 -3.8,1.7 -3.8,3.8 0,2.1 1.7,3.8 3.8,3.8 2.1,0 3.8,-1.7 3.8,-3.8 0,-2.1 -1.7,-3.8 -3.8,-3.8 z m 1.4,3.5 c -0.6,0 -1.1,-0.5 -1.1,-1.1 0,-0.6 0.5,-1.1 1.1,-1.1 0.6,0 1.1,0.5 1.1,1.1 0,0.6 -0.5,1.1 -1.1,1.1 z"
   id="path5" />
			</g>

			<g id="g8">
				<path
   fill="#D5D7D8"
   d="m 104.3,50.8 c -4.8,3.5 -7,8.9 -6.3,16.5 1.7,17.5 9.1,48.8 11.7,59.7 0.9,0.3 1.8,0.6 2.7,0.9 -1.6,-6.6 -9.3,-38.8 -12.7,-63.5 -0.9,-6.6 1.7,-10.5 4.6,-13.6 z"
   id="path6" />
				<path
   fill="#D5D7D8"
   d="m 116.2,46.5 c 0.4,0 0.7,-0.1 0.7,-0.1 -5.2,-2.5 -13.4,-2.6 -15.6,-2.6 -0.2,0.4 -0.4,0.9 -0.4,1.4 -0.1,0.1 9.6,-0.5 15.3,1.3 z"
   id="path7" />
				<path
   fill="#D5D7D8"
   d="m 106.8,41.1 c -1.6,-1.1 -2.9,-1.8 -3.7,-2.2 -0.7,0.1 -1.3,0.1 -2,0.2 0,0 2.3,0.7 4.9,2 0,0 -0.1,0 -0.2,0 0.7,0 1,0 1,0 z"
   id="path8" />
			</g>

			<g id="g10">
				<path
   fill="#67BD47"
   d="m 147.1,107.6 c -1.7,-0.4 -8.3,4.3 -10.8,6.1 -0.1,-0.5 -0.2,-0.9 -0.3,-1.1 -0.3,-1 -6.7,-0.4 -8.2,1.2 -4,-1.9 -12,-5.6 -12.1,-3.3 -0.3,3 0,15.5 1.6,16.4 1.2,0.7 8,-3 11.4,-4.9 0,0 0,0 0.1,0 2.1,0.5 6,0 7.4,-0.9 0.2,-0.1 0.3,-0.3 0.4,-0.5 3.1,1.2 9.8,3.6 11.2,3.1 1.8,-0.5 1.4,-15.6 -0.7,-16.1 z"
   id="path9" />
				<path
   fill="#43A347"
   d="m 128.8,122 c -2.1,-0.4 -1.4,-2.5 -1.4,-7.4 0,0 0,0 0,0 -0.5,0.3 -0.9,0.7 -0.9,1.1 0,4.9 -0.8,7.1 1.4,7.4 2.1,0.5 6,0 7.6,-0.9 0.3,-0.2 0.4,-0.5 0.5,-1 -1.5,0.9 -5.2,1.3 -7.2,0.8 z"
   id="path10" />
			</g>

		</g>
	</g>
</svg>
