<?xml version="1.0" encoding="UTF-8" standalone="no"?>
<svg
  viewBox="0 0 2582 2582"
  width="2582"
  height="2582"
  xmlns="http://www.w3.org/2000/svg">

  <circle fill="#ffffff" cx="1291" cy="1291" r="1291" />

  <g transform="matrix(0.77847226,0,0,0.77847226,318.32135,424.5275)">
    <path fill="#ea4435" d="m 1282.8,1046.6 -836.3,879.1 c 0,0.2 0,0.4 0.1,0.5 25.7,95.4 113.7,165.7 218.2,165.7 104.5,0 81,-11.2 114.6,-30.8 l 2.7,-1.6 941.4,-538 -440.6,-475.1 z" />

    <path fill="#f9bc15" d="m 2128.9,896.9 -0.8,-0.5 -406.4,-233.4 -457.9,403.6 459.5,455 404.3,-231 c 70.9,-37.9 119,-111.9 119,-197.2 0,-84.8 -47.5,-158.4 -117.7,-196.4 z" />

    <path fill="#547dbf" d="m 446.4,257.2 c -5,18.4 -7.7,37.6 -7.7,57.6 v 1553.5 c 0.8,22.3 2.6,39.2 7.7,57.5 l 865.1,-856.6 z" />

    <path fill="#33a852" d="M 1289,1091.5 1721.7,663 781.5,123 C 747.3,102.7 707.4,91 664.8,91 560.3,91 472.2,161.4 446.5,257 c 0,0 0,0.1 0,0.2 l 842.6,834.3 z" />
  </g>

</svg>
