<?xml version="1.0" encoding="UTF-8" standalone="no"?>
<!-- Created with Inkscape (http://www.inkscape.org/) -->

<svg
   width="206.0856mm"
   height="206.0856mm"
   viewBox="0 0 206.0856 206.0856"
   version="1.1"
   id="svg1"
   xml:space="preserve"
   xmlns="http://www.w3.org/2000/svg"
   xmlns:svg="http://www.w3.org/2000/svg"><defs
     id="defs1" /><g
     id="layer1"
     transform="translate(-0.31761932,-41.956573)"><circle
       style="fill:#4f8ef2;fill-opacity:1;stroke-width:2.72633"
       id="path1"
       cx="103.36042"
       cy="144.99937"
       r="103.0428" /><g
       style="fill:#ffffff"
       id="g1"
       transform="matrix(0.17085945,0,0,0.17085945,21.347884,227.18277)"><path
         d="M 796,-121 533,-384 q -30,26 -70,40.5 -40,14.5 -85,14.5 -108,0 -183,-75 -75,-75 -75,-181 0,-106 75,-181 75,-75 182,-75 106,0 180.5,75 74.5,75 74.5,181 0,43 -14,83 -14,40 -42,75 l 264,262 z M 377,-389 q 81,0 138,-57.5 57,-57.5 57,-138.5 0,-81 -57,-138.5 -57,-57.5 -138,-57.5 -82,0 -139.5,57.5 Q 180,-666 180,-585 q 0,81 57.5,138.5 Q 295,-389 377,-389 Z"
         id="path1-0" /></g></g></svg>
