<svg version="1.1" xmlns="http://www.w3.org/2000/svg" x="0px" y="0px" width="103px" height="94px" viewBox="0 0 103 94">
  <defs>
    <radialGradient id="SVGID_1_" cx="244.5713" cy="-427.1392" r="68.6868" gradientTransform="matrix(1 0 0 -1 -213.7637 -386.502)" gradientUnits="userSpaceOnUse">
      <stop offset="0" stop-color="#FFF"/><stop offset=".4835" stop-color="#EAEAEB"/><stop offset=".9451" stop-color="#A9ABAE"/><stop offset="1" stop-color="#999B9E"/>
    </radialGradient>
    <linearGradient id="SVGID_3_" gradientUnits="userSpaceOnUse" x1="456.2744" y1="510.1602" x2="502.7757" y2="582.9122" gradientTransform="matrix(1 0 0 1 -406.1641 -500.3203)">
      <stop offset="0" stop-color="#8A8A8A"/><stop offset=".5687" stop-color="#606060"/><stop offset=".5914" stop-color="#FFF"/><stop offset=".6116" stop-color="#585858"/><stop offset="1" stop-color="#303030"/>
    </linearGradient>
    <linearGradient id="SVGID_4_" gradientUnits="userSpaceOnUse" x1="425.2861" y1="502.9512" x2="445.7861" y2="598.6606" gradientTransform="matrix(1 0 0 1 -406.1641 -500.3203)">
      <stop offset="0" stop-color="#A8A9AB"/><stop offset="1" stop-color="#636668"/>
    </linearGradient>
    <linearGradient id="SVGID_5_" gradientUnits="userSpaceOnUse" x1="421.0684" y1="504.3701" x2="441.068" y2="597.7433" gradientTransform="matrix(1 0 0 1 -406.1641 -500.3203)">
      <stop offset="0" stop-color="#A8A9AB"/><stop offset="1" stop-color="#636668"/>
    </linearGradient>
    <linearGradient id="SVGID_6_" gradientUnits="userSpaceOnUse" x1="444.7598" y1="550.8145" x2="473.8418" y2="550.8145" gradientTransform="matrix(1 0 0 1 -406.1641 -500.3203)">
      <stop offset="0" stop-color="#231F20"/><stop offset="1" stop-color="#474747"/>
    </linearGradient>
    <linearGradient id="SVGID_7_" gradientUnits="userSpaceOnUse" x1="266.4922" y1="-395.2783" x2="295.9644" y2="-485.0349" gradientTransform="matrix(1 0 0 -1 -213.7637 -386.502)">
      <stop offset="0" stop-color="#FFF"/><stop offset=".0094" stop-color="#FCFCFC"/><stop offset=".0655" stop-color="#EEEEEE"/><stop offset=".1342" stop-color="#E5E5E5"/><stop offset=".2515" stop-color="#E3E3E3"/><stop offset=".3357" stop-color="#8A8A8A"/><stop offset=".4422" stop-color="#B8B8B8"/><stop offset="1" stop-color="#3B3B3B"/>
    </linearGradient>
    <linearGradient id="SVGID_8_" gradientUnits="userSpaceOnUse" x1="460.4629" y1="512.5557" x2="509.5884" y2="573.3062" gradientTransform="matrix(1 0 0 1 -406.1641 -500.3203)">
      <stop offset="0" stop-color="#EFF0F0"/><stop offset=".5914" stop-color="#F0F1F2"/><stop offset=".599" stop-color="#787878"/><stop offset=".6456" stop-color="#EEEFF0"/><stop offset="1" stop-color="#D8D9DB"/>
    </linearGradient>
    <linearGradient id="SVGID_10_" gradientUnits="userSpaceOnUse" x1="444.6943" y1="510.9561" x2="469.7246" y2="592.0699" gradientTransform="matrix(1 0 0 1 -406.1641 -500.3203)">
      <stop offset="0" stop-color="#FFF"/><stop offset=".7473" stop-color="#F9F9F9"/><stop offset="1" stop-color="#D5D7D8"/>
    </linearGradient>
    <linearGradient id="SVGID_32_" gradientUnits="userSpaceOnUse" x1="416.6992" y1="578.5645" x2="511.8228" y2="555.9398" gradientTransform="matrix(1 0 0 1 -406.1641 -500.3203)">
      <stop offset="0" stop-color="#EDEDEE"/><stop offset=".4176" stop-color="#FFF"/><stop offset=".6264" stop-color="#F8F9F9"/><stop offset=".9505" stop-color="#B2B4B6"/>
    </linearGradient>
  </defs>
  <path fill="url(#SVGID_1_)" d="M49.85,17.003c0.014-0.606-0.392-1.27-0.392-1.27l-0.025-0.058c0,0-0.487-0.949-1.301-1.228c-0.815-0.278-1.478,0.342-1.478,0.342s-0.114,0.131-0.428,0.494c-0.313,0.364-0.507,0.666-1.198,0.938c-0.692,0.271-1.379,0.204-1.743,0.033c-0.365-0.172-0.457-0.537-0.457-0.537s-0.229-0.722-0.313-1.049c-0.086-0.331-0.308-1.694-0.308-1.694s-0.492-2.747-0.535-3.304c0,0,1.475-0.126,3.686-0.775c2.3-0.673,3.043-1.206,3.043-1.206s-0.432-0.156-0.484-0.662c-0.051-0.507-0.089-1.19-0.089-1.19s-0.089-0.5,0.483-1.139c0.572-0.64,1.354-0.863,1.763-0.953c0.41-0.089,1.281-0.17,2.092-0.134c0.813,0.038,1.266,0.112,1.594,0.291c0.327,0.178,0.356,0.61,0.356,0.61l-0.009,1.146c0,0-0.035,0.402,0.262,0.529c0,0,0.505,0.305,2.197,0.133c0,0,0.719-0.126,1.845-0.46c1.125-0.335,4.129-1.229,4.554-1.341c0.426-0.111,0.953-0.291,1.645-0.469c0.693-0.179,2.041-0.626,2.309-0.73c0.27-0.104,1.811-0.618,2.928-0.81c1.114-0.195,2.226-0.186,2.813,0.149c0,0,0.357,0.304,0.521,0.662c0.162,0.358,0.476,0.863,0.92,1.088c0.457,0.227,0.754,0.371,1.877,0.273c0,0,0.021-0.096-0.396-0.37c-0.417-0.277-0.991-0.701-0.991-0.701s-0.334-0.245-0.408-0.447c-0.072-0.202-0.043-0.306-0.043-0.306l0.877-1.406c0,0,0-0.172,0.506-0.238c0.506-0.067,1.074-0.134,1.742-0.313c0.67-0.178,0.789-0.312,0.789-0.312l0.578,0.178c0,0,3.547,2.853,4.655,3.583l0.198-0.239c0,0,0.437,0.018,0.828,0.172c0.393,0.154,0.979,0.562,0.979,0.562s1.613,1.31,2.072,2.2l0.222,0.679l-0.102,0.161c0,0,0.919,1.307,2.096,2.602c0,0,1.229,1.664,1.689,2.09c0,0-0.108-0.399-0.203-0.849l0.339-0.226l0.2-0.144l0.617,0.259c3.575,4.811,6.435,10.424,8.144,16.328l-0.121,0.484l0.396,0.501c1.129,4.212,1.729,8.643,1.729,13.211c0,1.122-0.038,2.236-0.109,3.339l-0.304,0.511l0.226,0.555C99.95,72.645,78.057,93.131,51.38,93.131c-18.502,0-34.702-9.854-43.637-24.601l-0.102-0.365l-0.205-0.151c-3.387-5.742-5.682-12.205-6.595-19.104l0.212-0.524l-0.336-0.482c-0.213-1.892-0.322-3.812-0.322-5.758c0-2.985,0.255-5.909,0.748-8.755l0.25-0.562l-0.087-0.328C2.463,26.451,4.689,20.783,7.78,15.7l0.684-0.384l0.081,0.032c0,0,0.233-0.169,0.354-0.217l0.076-0.023c0,0,1.179-1.971,1.625-2.601c0,0,0.542-0.348,0.745-0.407c0,0,0.124-0.016,0.189,0.076c0,0,0.496-0.432,1.699-2.054c0.004-0.005,0.007-0.011,0.012-0.017c0,0-0.114-0.076-0.131-0.174c-0.018-0.097,0.108-0.591,0.173-0.717s0.108-0.156,0.108-0.156s1.722-2.032,3.151-3.238c0,0,0.26-0.202,0.678-0.25c0,0,1.472-0.613,3.264-2.184c0,0,0.051-0.289,0.478-0.858c0.428-0.57,1.456-1.163,2.222-1.337c0.764-0.174,0.896-0.038,0.896-0.038l0.064,0.065l0.515,0.766c0,0,0.565-0.316,1.413-0.604c0.847-0.289,0.979-0.262,0.979-0.262l0.823,1.336l-0.987,2c0,0-0.644,1.421-1.655,2.185c0,0-0.472,0.284-1.12,0.127c-0.648-0.157-1.072,0.333-1.072,0.333l-0.17,0.14c0,0,0.14-0.024,0.346-0.103c0,0,0.158,0.065,0.274,0.223c0.114,0.158,0.913,1.175,0.913,1.175s0.005,0.837-0.415,1.938c-0.419,1.1-1.467,2.891-1.467,2.891s-0.733,1.424-1.075,2.253c-0.342,0.829-0.515,1.765-0.488,2.262c0,0,0.187,0.062,0.707-0.202c0.655-0.332,1.083,0.027,1.083,0.027s0.719,0.53,1.041,0.881c0.262,0.289,0.802,1.765,0.209,3.224c0,0-0.402,1.008-1.377,1.724c0,0-0.216,0.332-1.529,0.174c-0.368-0.043-0.585-0.276-1.372-0.2c-0.785,0.077-1.231,0.815-1.231,0.815l0.013-0.024c-0.692,0.999-1.154,2.458-1.154,2.458l-0.057,0.165c0,0-0.241,0.509-0.292,1.752c-0.053,1.284,0.284,3.109,0.284,3.109s7.876-1.387,9.88-0.055l0.58,0.532c0,0,0.046,0.174-0.031,0.376c-0.08,0.204-0.375,0.673-0.987,1.113c-0.611,0.438-1.222,1.583-0.313,2.304c1.034,0.818,1.691,0.766,3.43,0.468c1.74-0.297,2.898-1.269,2.898-1.269s0.972-0.72,0.783-1.628c-0.188-0.908-1.017-1.189-1.017-1.189s-0.658-0.423-0.141-1.238c0,0,0.141-0.689,2.553-1.316c2.414-0.626,6.812-1.52,10.557-1.989c0,0-2.539-8.223-0.738-9.289c0,0,0.438-0.296,1.224-0.408l0.72-0.037c0.131-0.027,0.343,0.005,0.796,0.045c0.453,0.038,1.001,0.076,1.678-0.441c0.676-0.519,0.697-0.819,0.697-0.819"/>
  <path opacity=".69" fill="url(#SVGID_3_)" d="M82.447,79.307l0.451,0.168c-0.032,0.061-0.067,0.119-0.101,0.179c-0.864,1.573-0.936,1.927-1.36,2.253c-0.424,0.326-0.58,0.539-1.443,0.695c-0.865,0.156-1.771,1.175-1.771,1.175s-0.875,0.835-0.48,0.866c0.396,0.025,1.177-0.609,1.177-0.609s0.497-0.354,0.625-0.255c0.125,0.099-0.539,0.751-0.539,0.751s-1.161,1.176-2.479,1.982l-0.396,0.213c0,0,1.869-1.392,2.764-2.395c0,0,0.185-0.271-0.185,0.057c-0.369,0.325-1.332,0.821-1.741,0.821c-0.41,0,0.016-0.563,0.016-0.563s0.596-0.768,1.812-1.758c1.22-0.994,2.239-0.922,2.239-0.922s0.227,0.043,0.253-0.271c0.028-0.313,0.312-0.863,0.312-0.863s0.453-1.032,1.674-2.749c1.218-1.714,1.77-2.195,1.77-2.195s1.588-1.629,2.423-3.259c0,0,0.581-1.006-0.364-0.255c-0.951,0.753-2.211,1.7-3.44,2.014c-1.233,0.312-1.349-0.836-1.349-0.836s-0.271-1.884,1.049-3.344c1.188-1.316,2.492-1.273,3.684-1.415c1.188-0.144,2.21-1.571,2.21-1.571s0.82-0.922,1.289-3.797c0.218-1.337,0.067-2.244-0.144-2.818l0.021-0.647l-0.368-0.021c-0.078-0.106-0.135-0.153-0.135-0.153s-0.297-0.299-0.607-0.524c-0.313-0.227-0.692-0.649-1.063-1.457c0,0-1.019-2.11-0.792-5.156c0.227-3.047,2.762-2.762,2.762-2.762s1.475,0.143,1.76-0.298c0.283-0.438,0.553-0.993,0.649-2.223c0.101-1.233-0.396-2.408-0.396-2.408s-0.186-0.609-1.049-0.708c-0.863-0.1-1.051,0.169-1.051,0.169s-0.255,0.072-0.723,1.09c-0.471,1.021-0.75,1.488-1.602,1.702c-0.849,0.211-2.023,0.099-2.549-0.992c-0.515-1.072-1.757-3.693-2.351-5.772l0.084-0.735l-0.325-0.471c-0.063-0.396-0.117-0.846-0.13-1.236c-0.026-0.992-0.312-2.097-0.638-3.2c-0.326-1.106-1.459-2.972-1.672-3.399c-0.324-0.667-0.621-0.949-1.021-0.893c-0.396,0.056-0.339,0.056-0.513,0.056c-0.168,0-0.266,0.212-0.311,0.425c-0.042,0.212-0.375,1.315-1.104,1.812c-0.752,0.51-1.147,0.737-2.438,0.85c0,0-1.487,0.099-2.661-2.097C71,29.36,71.301,27.96,71.398,27.45c0.099-0.51,0.539-1.247,1.229-1.388c0.693-0.141,1.119-0.184,1.119-0.184s1.122-0.01,1.603-0.071c0.551-0.071,0.283-1.006,0.283-1.006s-0.361-2.371-2.348-4.318l-0.096-0.487l-0.756-0.381c-1.881-2.04-4.354-5.354-4.354-5.354s-1.105-1.048-0.17-2.493c0,0,0.438-0.963,1.742-0.792c0.419,0.081,0.457,0.123,0.818,0.199c0.481,0.099,1.008,0.225,1.478-0.398c0,0,0.438-0.792-0.271-1.812s-0.923-1.742-1.785-1.687c0,0-0.397-0.055-0.793,0.384C68.702,8.1,67.682,8.378,67.086,8.44c-0.679,0.071-2.252-0.528-3.156-2.082c-0.513-0.874-0.752-1.35-0.865-1.595l0.231-0.34l0.72,0.08c0.186,0.358,0.549,1.056,0.978,1.812c0.552,0.978,1.048,1.118,1.373,1.261c0.325,0.141,1.049-0.071,1.431-0.283c0.385-0.213,0.766-0.695,1.43-0.738c0.668-0.043,1.629,0.071,2.311,0.793c0.682,0.723,1.531,2.224,1.459,2.932c-0.068,0.708-0.111,1.403-1.035,1.699c-0.921,0.298-1.303,0.043-1.884-0.084c-0.581-0.128-0.864-0.072-1.104,0.211c-0.242,0.284-0.512,0.892-0.412,1.162c0.102,0.27,0.186,0.454,0.75,1.262c0.566,0.806,3.474,4.25,4.031,4.766l-0.152,0.698l0.968,0.176c0.625,0.724,1.358,1.668,1.687,2.263c0.493,0.907,0.752,2.337,0.779,3.002c0.025,0.666-0.299,0.963-0.299,0.963s-0.313,0.524-2.012,0.524c-1.517,0-1.614,0.297-1.614,0.297s-0.47,0.467-0.369,1.615c0.103,1.146,0.616,2.344,1.56,3.37c0.778,0.851,2.252-0.006,2.748-0.295c0.51-0.299,0.822-1.264,0.822-1.264s0.102-1.217,1.432-1.217c1.377,0,1.969,1.318,1.969,1.318s0.963,1.295,1.941,4.121c0.481,1.389,0.566,2.281,0.566,2.281l0.126,1.668l-0.513,0.892l0.732,0.312c0.135,0.541,0.348,1.24,0.686,2.044c0,0,1.008,2.381,1.443,3.286c0.44,0.906,0.896,0.766,1.264,0.808c0,0,0.85,0.113,1.16-0.282c0.313-0.398,0.61-1.092,0.61-1.092s0.663-1.812,2.138-1.657c1.475,0.156,1.84,1.092,2.096,2.168c0.256,1.074,0.313,3.229-0.479,4.545c-0.798,1.318-1.688,1.135-1.688,1.135s-1.813-0.17-2.225,0.213c-0.41,0.382-0.623,0.724-0.681,1.613c-0.058,0.894,0.026,2.336,0.751,4.08c0.631,1.523,1.146,1.361,1.432,1.728c0.284,0.368,1.188,1.204,1.104,3.272c-0.082,2.067-0.791,4.149-1.586,5.439c-0.793,1.288-1.997,2.053-1.997,2.053s-0.338,0.211-1.076,0.311c-0.735,0.102-1.784,0.086-2.534,0.513c-0.75,0.426-0.992,1.501-1.063,1.971c-0.069,0.468-0.112,1.529,0.921,1.413c1.034-0.109,2.577-1.4,2.577-1.4s1.486-1.104,1.685-0.752c0.199,0.354-0.636,1.784-0.636,1.784s-1.035,1.562-1.898,2.523c-0.709,0.791-1.641,1.868-2.431,3.102L82.447,79.307L82.447,79.307z"/>
  <path fill="url(#SVGID_4_)" d="M23.441,22.732c-0.007,0.008-0.013,0.018-0.021,0.025C23.428,22.75,23.434,22.74,23.441,22.732z"/>
  <path opacity=".45" fill="url(#SVGID_5_)" d="M38.188,89.707l0.163,0.01c-0.163-0.147-0.37-0.281-0.62-0.414c-0.699-0.371-3.731-2.375-4.669-3.009c-0.936-0.633-2.575-1.7-3.297-1.478c-0.554,0.172-0.475,0.394-0.804,0.556c-0.331,0.157-0.687,0.052-1.504-0.384c-0.818-0.434-1.424-0.725-3.02-2.239c-1.245-1.185,1.595-0.118,1.595-0.118s0.619,0.262,0.343-0.385c-0.277-0.646-1.676-2.333-2.994-3.691c-1.068-1.098-1.674-1.86-2.435-2.97l-0.566-0.661l0.007-0.166c-0.018-0.024-0.035-0.054-0.052-0.078c0,0-1.874-3.377-1.676-4.617c0,0,0.068-0.828,1.241-1.188c0.817-0.251,0.71,0.542,3.112,0.975c0,0,2.07,0.559,2.611-0.945c0.539-1.505-0.567-3.393-0.567-3.393s-1.449-2.656-3.244-2.758c-0.95-0.053-0.692,0.586-2.125,0.926c0,0-1.913,0.184-2.519-0.963c-0.734-1.389-1.04-2.969-1.015-4.022c0.022-1,0.054-1.079,0.119-1.371c0.045-0.206,0.192-0.582,0.254-1.128l-0.134-0.667l0.204-0.501c0.002-0.26-0.004-0.535-0.021-0.83c-0.091-1.66-0.213-4.221-0.437-5.71c-0.223-1.491-0.633-3.798-1.991-3.866c0,0-0.671-0.051-1.634,0.885c-0.884,0.856-1.684-0.708-1.728-1.663c-0.053-1.121,0.131-2.254,0.409-2.795c0.277-0.541,1.042-0.567,1.186-0.555c0.146,0.013,0.555,0.171,1.043,0.474c0.488,0.305,1.16,0.305,1.557-0.092c0.395-0.394,0.947-0.856,1.173-2.598c0.224-1.741,0.224-3.547,0.013-5.71l-0.225-0.484l1.339-0.289c-0.001-0.017-0.021-0.126-0.032-0.193c0-0.002,0-0.003,0-0.005c-0.002-0.017-0.005-0.032-0.007-0.049c-0.001-0.003-0.001-0.005-0.001-0.007c-0.003-0.019-0.007-0.038-0.009-0.057c0-0.001-0.001-0.001-0.001-0.003c-0.003-0.02-0.006-0.042-0.009-0.062c0-0.001,0-0.001,0-0.001c-0.004-0.023-0.007-0.045-0.011-0.068c0-0.004-0.001-0.006-0.001-0.008c-0.002-0.022-0.006-0.045-0.008-0.066c-0.001-0.006-0.001-0.01-0.003-0.017c-0.002-0.023-0.005-0.046-0.009-0.069c-0.001-0.004-0.001-0.007-0.002-0.014c-0.003-0.026-0.007-0.05-0.011-0.076c0-0.002,0-0.004,0-0.005c-0.004-0.024-0.008-0.05-0.011-0.076c-0.001-0.007-0.001-0.01-0.003-0.017c-0.002-0.025-0.006-0.052-0.009-0.08c-0.001-0.005-0.001-0.011-0.002-0.021c-0.005-0.027-0.007-0.053-0.011-0.081c-0.001-0.006-0.002-0.013-0.002-0.019c-0.002-0.029-0.006-0.058-0.01-0.087c0-0.004-0.001-0.008-0.003-0.014c-0.002-0.028-0.005-0.056-0.009-0.082c-0.001-0.006-0.001-0.011-0.002-0.016c-0.002-0.031-0.006-0.06-0.01-0.09c0-0.006-0.001-0.015-0.002-0.021c-0.004-0.03-0.006-0.061-0.011-0.09c0-0.007-0.001-0.015-0.002-0.022c-0.003-0.03-0.006-0.062-0.01-0.093c0-0.006-0.002-0.012-0.002-0.019c-0.003-0.032-0.005-0.063-0.009-0.094c0-0.002,0-0.005,0-0.009c-0.004-0.032-0.005-0.066-0.01-0.1c0-0.005,0-0.012-0.001-0.02c-0.002-0.033-0.005-0.065-0.007-0.098c-0.001-0.007-0.001-0.014-0.001-0.021c-0.004-0.033-0.006-0.067-0.008-0.099c0-0.005,0-0.012-0.001-0.02c-0.002-0.033-0.006-0.069-0.007-0.102c0-0.003,0-0.007-0.001-0.01c-0.002-0.033-0.004-0.066-0.006-0.1c-0.001-0.006-0.001-0.011-0.001-0.017c-0.001-0.032-0.003-0.068-0.005-0.1c0-0.008,0-0.014-0.001-0.021c-0.001-0.031-0.002-0.065-0.003-0.099c-0.001-0.006-0.001-0.013-0.001-0.021c-0.002-0.033-0.003-0.066-0.004-0.1c0-0.005,0-0.009,0-0.014c-0.001-0.032-0.001-0.066-0.002-0.099c0-0.003,0-0.005,0-0.009c0-0.034,0-0.067-0.001-0.101c0-0.005,0-0.013,0-0.017c0-0.033,0-0.067,0-0.098c0-0.005,0.001-0.012,0.001-0.019c0-0.032,0-0.065,0.001-0.095c0-0.005,0-0.009,0-0.015c0.001-0.033,0.001-0.065,0.003-0.099c0.052-1.244,0.292-1.752,0.292-1.752l0.057-0.164c0,0,0.46-1.459,1.154-2.459l-0.013,0.024c0,0,0.446-0.738,1.231-0.814c0.785-0.079,1.004,0.156,1.371,0.2c0.04,0.004,0.078,0.008,0.115,0.013c0.013,0.002,0.025,0.002,0.037,0.004c0.025,0.002,0.051,0.004,0.075,0.006c0.014,0.001,0.027,0.003,0.041,0.003c0.021,0.001,0.043,0.003,0.064,0.004c0.014,0.001,0.028,0.002,0.041,0.003c0.02,0.001,0.04,0.001,0.058,0.003c0.014,0,0.026,0,0.042,0c0.019,0.001,0.036,0.002,0.055,0.002c0.013,0.001,0.026,0.001,0.038,0.002c0.017,0,0.034,0,0.051,0c0.011,0,0.023,0,0.034,0c0.017,0,0.033,0,0.05,0c0.011,0,0.02,0.001,0.032-0.001c0.016-0.001,0.031-0.001,0.046-0.001c0.011-0.001,0.02-0.001,0.03-0.002c0.016,0,0.03-0.002,0.045-0.002c0.009,0,0.019,0,0.026-0.001c0.016-0.001,0.03-0.002,0.044-0.004c0.006,0,0.016-0.001,0.023-0.002c0.015-0.001,0.029-0.001,0.044-0.003c0.006-0.001,0.013-0.002,0.02-0.002c0.016-0.002,0.03-0.004,0.045-0.008c0.004,0,0.008,0,0.013-0.001c0.019-0.002,0.036-0.005,0.052-0.008l0,0c0.035-0.006,0.068-0.014,0.098-0.021c0,0,0,0,0.002-0.002c0.012-0.002,0.025-0.005,0.039-0.01c0.002,0,0.004,0,0.008-0.001c0.009-0.003,0.019-0.006,0.028-0.009c0.004,0,0.007-0.002,0.01-0.003c0.009-0.003,0.019-0.007,0.026-0.009c0.002-0.001,0.005-0.002,0.008-0.003c0.008-0.003,0.015-0.006,0.021-0.009c0.004-0.001,0.006-0.003,0.009-0.003c0.007-0.004,0.014-0.005,0.02-0.009c0.003-0.001,0.006-0.003,0.008-0.004c0.005-0.002,0.012-0.005,0.019-0.007c0.001-0.001,0.003-0.002,0.005-0.004c0.005-0.003,0.01-0.005,0.016-0.007c0.002-0.002,0.003-0.002,0.006-0.004c0.004-0.001,0.008-0.005,0.012-0.007c0.002-0.001,0.004-0.001,0.005-0.003c0.004-0.002,0.008-0.006,0.012-0.008c0.001,0,0.003-0.002,0.004-0.003c0.003-0.003,0.007-0.004,0.011-0.007c0.001-0.001,0.001-0.001,0.002-0.003c0.004-0.001,0.006-0.005,0.008-0.008h0.002c0.003-0.002,0.005-0.005,0.008-0.007l0.001-0.001c0.002-0.002,0.004-0.004,0.006-0.006s0.002-0.002,0.003-0.003c0.001,0,0.002-0.002,0.002-0.002c0.001-0.003,0.001-0.003,0.003-0.005c0.003-0.001,0.003-0.004,0.003-0.004c0.328-0.241,0.593-0.516,0.797-0.775c0.014-0.017,0.026-0.033,0.04-0.05c0.002-0.004,0.005-0.009,0.008-0.012c0.013-0.015,0.026-0.031,0.038-0.048c0.002-0.004,0.006-0.008,0.007-0.011c0.012-0.018,0.025-0.033,0.038-0.05c0.001,0,0.001,0,0.001-0.001c0.039-0.054,0.075-0.109,0.109-0.159c0-0.002,0.002-0.004,0.003-0.007c0.01-0.016,0.02-0.029,0.03-0.044c0.001-0.004,0.005-0.007,0.007-0.011c0.008-0.014,0.017-0.029,0.024-0.042c0.003-0.004,0.005-0.009,0.009-0.013c0.008-0.014,0.017-0.028,0.024-0.042l0.001-0.002c0.017-0.027,0.032-0.055,0.046-0.079c0.002-0.003,0.004-0.008,0.007-0.012c0.005-0.009,0.01-0.021,0.016-0.03c0.003-0.007,0.007-0.014,0.012-0.02c0.004-0.008,0.01-0.017,0.014-0.024c0.002-0.008,0.006-0.017,0.011-0.023c0.004-0.007,0.009-0.016,0.012-0.022c0.004-0.007,0.007-0.014,0.011-0.021c0.002-0.006,0.007-0.011,0.01-0.018c0.066-0.13,0.097-0.207,0.097-0.207c0.594-1.459,0.052-2.935-0.21-3.224c-0.32-0.354-1.041-0.883-1.041-0.883s-0.426-0.357-1.08-0.025c-0.521,0.264-0.711,0.201-0.711,0.201c-0.024-0.498,0.149-1.432,0.491-2.263c0.341-0.829,1.075-2.253,1.075-2.253s1.047-1.792,1.467-2.89c0.418-1.102,0.415-1.94,0.415-1.94s-0.795-1.019-0.91-1.177c-0.115-0.158-0.272-0.223-0.272-0.223c-0.205,0.078-0.345,0.103-0.345,0.103l0.169-0.14c0,0,0.424-0.492,1.073-0.334c0.648,0.158,1.119-0.126,1.119-0.126c1.011-0.764,1.654-2.187,1.654-2.187l0.988-1.997L27.059,1.12c0,0-0.131-0.028-0.979,0.259c0,0-0.773,1.905-1.725,3.087c0,0-0.374,0.552-0.664,0.416c-0.289-0.134-0.629-0.144-0.91-0.085c-0.281,0.06-1.156,0.349-1.948,1.413c-0.79,1.064-0.883,1.863-0.458,2.101c0.425,0.238,1.045-0.076,1.42-0.407c0.375-0.333,0.638-0.485,0.757-0.47c0.118,0.02,0.093,0.315,0.068,0.41c-0.026,0.094-0.154,1.364-1.625,3.913c-0.369,0.64-0.845,1.589-1.069,2.046l0.608,0.447l-0.999,0.503c-0.266,0.758-0.605,1.945-0.471,2.61c0.204,1.011,1.158,1.011,1.158,1.011s0.621,0.027,1.344-0.348c0.722-0.375,0.892,1.242,0.892,1.505c0,0.264-0.007,1.726-1.02,2.442c0,0-0.409,0.313-0.985,0.313c-0.579,0-0.954-0.169-0.954-0.169s-0.984-0.272-1.59,0.083c-0.604,0.358-1.326,1.098-1.897,2.17c-0.569,1.072-1.045,2.986-1.019,4.397c0.02,1.111,0.18,2.162,0.291,2.879l0.667,0.435l-0.543,0.623c0.079,1.136,0.168,3.363,0.155,4.109c-0.018,0.911-0.154,2.84-1.115,3.292c0,0-0.324,0.171-0.868-0.238s-1.132-0.426-1.37-0.435c-0.238-0.007-1.285,0.162-1.692,1.311c-0.408,1.145-0.375,2.688-0.29,3.597c0.086,0.91,0.876,2.458,1.872,2.458c0,0,0.484,0.035,1.055-0.553c0.568-0.586,0.902-0.637,1.156-0.629c0.255,0.009,0.749,0.272,1.072,2.851c0.307,2.442,0.437,4.442,0.414,6.668l0.605,0.392l-0.758,0.768c-0.042,0.199-0.089,0.417-0.142,0.626c-0.169,0.682-0.187,1.364-0.024,2.569c0.161,1.21,0.811,3.72,1.754,4.375c1.252,0.871,2.071,0.856,2.916,0.791c0.842-0.067,1.424-0.712,1.424-0.712s0.331-0.342,0.685-0.237c0.356,0.104,1.346,0.66,2.058,2.084c0.713,1.425,0.871,2.992-0.316,3.272c-1.187,0.272-3.231-0.846-3.231-0.846s-1.161-0.647-2.109,0.064c-0.951,0.713-0.977,1.807-0.502,3.15c0.261,0.738,0.782,1.938,1.513,3.188l0.721,0.302l-0.193,0.551c0.492,0.748,1.055,1.479,1.678,2.105c0,0,2.466,2.729,3.838,4.457c0,0,0.08,0.157-0.158,0.016c-0.238-0.146-1.266-0.621-1.82-0.566c-0.555,0.054-0.45,0.395-0.45,0.395s0.238,1.254,4.01,3.365c0,0,1.359,0.766,2.216,0.766c0,0,0.277,0.039,0.619-0.346c0.346-0.381,0.45-0.341,0.688-0.262c0.237,0.076,0.553,0.249,1.741,1.105c1.188,0.857,3.496,2.176,4.325,2.731c0.83,0.555,0.793,0.657,0.621,1.054c-0.171,0.396,0.593,0.619,0.593,0.619s1.899,0.855,2.928,0.846c1.029-0.016,1.464-0.119,2.097,0.012c0.632,0.133,1.28,0.291,1.345,0.346c0.066,0.053-0.315,0.038-0.315,0.038s-2.362-0.276-2.494-0.21c-0.13,0.066,0.014,0.184,0.99,0.436v0.006c1.245,0.217,2.507,0.387,3.782,0.51c-0.489-0.061-2.52-0.322-3.823-0.713c0,0-0.131-0.078,0.173-0.014c0.303,0.065,2.018,0.225,2.466,0.157c0.448-0.065-0.092-0.274-0.092-0.274s-0.897-0.425-2.889-0.582c0,0-0.803-0.055-1.503,0.014c-0.699,0.066-1.41-0.264-1.41-0.264s-1.028-0.317-0.78-0.646c0.126-0.165,0.137-0.336,0.065-0.502L38.188,89.707L38.188,89.707z"/>
  <path fill="url(#SVGID_3_)" d="M82.447,79.307l0.451,0.168c-0.032,0.061-0.067,0.119-0.101,0.179c-0.864,1.573-0.936,1.927-1.36,2.253c-0.424,0.326-0.58,0.539-1.443,0.695c-0.865,0.156-1.771,1.175-1.771,1.175s-0.875,0.835-0.48,0.866c0.396,0.025,1.177-0.609,1.177-0.609s0.497-0.354,0.625-0.255c0.125,0.099-0.539,0.751-0.539,0.751s-1.161,1.176-2.479,1.982l-0.396,0.213c0,0,1.869-1.392,2.764-2.395c0,0,0.185-0.271-0.185,0.057c-0.369,0.325-1.332,0.821-1.741,0.821c-0.41,0,0.016-0.563,0.016-0.563s0.596-0.768,1.812-1.758c1.22-0.994,2.239-0.922,2.239-0.922s0.227,0.043,0.253-0.271c0.028-0.313,0.312-0.863,0.312-0.863s0.453-1.032,1.674-2.749c1.218-1.714,1.77-2.195,1.77-2.195s1.588-1.629,2.423-3.259c0,0,0.581-1.006-0.364-0.255c-0.951,0.753-2.211,1.7-3.44,2.014c-1.233,0.312-1.349-0.836-1.349-0.836s-0.271-1.884,1.049-3.344c1.188-1.316,2.492-1.273,3.684-1.415c1.188-0.144,2.21-1.571,2.21-1.571s0.82-0.922,1.289-3.797c0.218-1.337,0.067-2.244-0.144-2.818l0.021-0.647l-0.368-0.021c-0.078-0.106-0.135-0.153-0.135-0.153s-0.297-0.299-0.607-0.524c-0.313-0.227-0.692-0.649-1.063-1.457c0,0-1.019-2.11-0.792-5.156c0.227-3.047,2.762-2.762,2.762-2.762s1.475,0.143,1.76-0.298c0.283-0.438,0.553-0.993,0.649-2.223c0.101-1.233-0.396-2.408-0.396-2.408s-0.186-0.609-1.049-0.708c-0.863-0.1-1.051,0.169-1.051,0.169s-0.255,0.072-0.723,1.09c-0.471,1.021-0.75,1.488-1.602,1.702c-0.849,0.211-2.023,0.099-2.549-0.992c-0.515-1.072-1.757-3.693-2.351-5.772l0.084-0.735l-0.325-0.471c-0.063-0.396-0.117-0.846-0.13-1.236c-0.026-0.992-0.312-2.097-0.638-3.2c-0.326-1.106-1.459-2.972-1.672-3.399c-0.324-0.667-0.621-0.949-1.021-0.893c-0.396,0.056-0.339,0.056-0.513,0.056c-0.168,0-0.266,0.212-0.311,0.425c-0.042,0.212-0.375,1.315-1.104,1.812c-0.752,0.51-1.147,0.737-2.438,0.85c0,0-1.487,0.099-2.661-2.097C71,29.36,71.301,27.96,71.398,27.45c0.099-0.51,0.539-1.247,1.229-1.388c0.693-0.141,1.119-0.184,1.119-0.184s1.122-0.01,1.603-0.071c0.551-0.071,0.283-1.006,0.283-1.006s-0.361-2.371-2.348-4.318l-0.096-0.487l-0.756-0.381c-1.881-2.04-4.354-5.354-4.354-5.354s-1.105-1.048-0.17-2.493c0,0,0.438-0.963,1.742-0.792c0.419,0.081,0.457,0.123,0.818,0.199c0.481,0.099,1.008,0.225,1.478-0.398c0,0,0.438-0.792-0.271-1.812s-0.923-1.742-1.785-1.687c0,0-0.397-0.055-0.793,0.384C68.702,8.1,67.682,8.378,67.086,8.44c-0.679,0.071-2.252-0.528-3.156-2.082c-0.513-0.874-0.752-1.35-0.865-1.595l0.231-0.34l0.72,0.08c0.186,0.358,0.549,1.056,0.978,1.812c0.552,0.978,1.048,1.118,1.373,1.261c0.325,0.141,1.049-0.071,1.431-0.283c0.385-0.213,0.766-0.695,1.43-0.738c0.668-0.043,1.629,0.071,2.311,0.793c0.682,0.723,1.531,2.224,1.459,2.932c-0.068,0.708-0.111,1.403-1.035,1.699c-0.921,0.298-1.303,0.043-1.884-0.084c-0.581-0.128-0.864-0.072-1.104,0.211c-0.242,0.284-0.512,0.892-0.412,1.162c0.102,0.27,0.186,0.454,0.75,1.262c0.566,0.806,3.474,4.25,4.031,4.766l-0.152,0.698l0.968,0.176c0.625,0.724,1.358,1.668,1.687,2.263c0.493,0.907,0.752,2.337,0.779,3.002c0.025,0.666-0.299,0.963-0.299,0.963s-0.313,0.524-2.012,0.524c-1.517,0-1.614,0.297-1.614,0.297s-0.47,0.467-0.369,1.615c0.103,1.146,0.616,2.344,1.56,3.37c0.778,0.851,2.252-0.006,2.748-0.295c0.51-0.299,0.822-1.264,0.822-1.264s0.102-1.217,1.432-1.217c1.377,0,1.969,1.318,1.969,1.318s0.963,1.295,1.941,4.121c0.481,1.389,0.566,2.281,0.566,2.281l0.126,1.668l-0.513,0.892l0.732,0.312c0.135,0.541,0.348,1.24,0.686,2.044c0,0,1.008,2.381,1.443,3.286c0.44,0.906,0.896,0.766,1.264,0.808c0,0,0.85,0.113,1.16-0.282c0.313-0.398,0.61-1.092,0.61-1.092s0.663-1.812,2.138-1.657c1.475,0.156,1.84,1.092,2.096,2.168c0.256,1.074,0.313,3.229-0.479,4.545c-0.798,1.318-1.688,1.135-1.688,1.135s-1.813-0.17-2.225,0.213c-0.41,0.382-0.623,0.724-0.681,1.613c-0.058,0.894,0.026,2.336,0.751,4.08c0.631,1.523,1.146,1.361,1.432,1.728c0.284,0.368,1.188,1.204,1.104,3.272c-0.082,2.067-0.791,4.149-1.586,5.439c-0.793,1.288-1.997,2.053-1.997,2.053s-0.338,0.211-1.076,0.311c-0.735,0.102-1.784,0.086-2.534,0.513c-0.75,0.426-0.992,1.501-1.063,1.971c-0.069,0.468-0.112,1.529,0.921,1.413c1.034-0.109,2.577-1.4,2.577-1.4s1.486-1.104,1.685-0.752c0.199,0.354-0.636,1.784-0.636,1.784s-1.035,1.562-1.898,2.523c-0.709,0.791-1.641,1.868-2.431,3.102L82.447,79.307L82.447,79.307z"/>
  <path opacity=".45" fill="url(#SVGID_39_)" d="M49.855,16.94c0,0-4.085,1.326-3.891,1.254c0,0-0.39,0.075-0.686,0.161c-0.294,0.086-0.539,0.247-0.539,0.247s-3.288,1.222-6.438,1.848c-3.148,0.627-2.977-0.361-2.708-0.83c0.232-0.409,0.829-1.112-0.188-1.254c-1.019-0.14-1.788,0.251-2.21,0.439c-0.422,0.189-3.162,1.362-1.251,2.254c0,0,1.423,0.642-0.377,1.755c0,0-1.816,1.16-5.355,1.77c0,0-0.565,0.063-1.88,0.111c-1.316,0.046-2.558,0.213-4.12,0.658c-1.378,0.391-1.992,0.579-2.744,1.065l0.194-0.501l0.2-0.462c1.069-0.533,3.719-1.288,5.717-1.378c1.997-0.089,2.908-0.16,4.721-0.624c2.134-0.546,2.702-1.019,2.93-1.163c0.194-0.123,0.771-0.479,0.493-0.633c-0.359-0.199-0.895-0.729-0.895-0.729c-0.217-0.256-0.39-0.373-0.158-1.046c0.356-1.029,2.196-1.644,2.196-1.644s1.028-0.534,2.334-0.514c1.305,0.021,1.287,0.752,1.287,0.752s0.062,0.34-0.268,0.827c0,0-0.503,0.579-0.049,0.656c0.454,0.081,1.622,0.179,5.48-1.028c3.859-1.207,8.085-2.611,8.085-2.611S49.855,16.66,49.855,16.94L49.855,16.94z"/>
  <path fill="url(#SVGID_10_)" d="M55.064,72.686l0.408-0.377c-0.34-0.668-0.693-1.269-0.693-1.269s-1.282-1.901-0.245-3.703c1.036-1.803,2.737-2.348,2.737-2.348s1.5-0.332,2.996,0.017c1.418,0.323,2.133-0.22,2.133-0.22s0.865-0.376,1.123-2.104c0.261-1.729-0.014-4.94-2.317-5.576c-2.306-0.633-3.528,0.563-3.528,0.563s-1.242,1.369-1.644,1.57c-0.404,0.2-1.024,0.562-1.024,0.562s-0.865,0.52-1.453,0.648c-0.39,0.087-1.788-1.771-1.931-3.2c-0.133-1.313-0.4-2.385-0.305-5.084c0-0.005,0-0.01,0-0.017l-0.486-0.629l0.537-0.526c0.102-3-0.418-5.119-1.188-6.463c-0.805-1.414-2.118-2.163-2.766-2.479c-0.647-0.317-2.146-0.461-3.169-0.086c-1.022,0.375-1.237,0.677-1.613,1.325c-0.376,0.65-0.835,0.606-0.835,0.606s-1.427,0.044-1.89-2.132c-0.644-3.049,0.36-4.036,0.36-4.036s0.318-0.475,1.369-0.619c1.053-0.144,1.73,0.115,2.536,0.317c0.807,0.2,1.41,0.114,2.42-0.374c1.009-0.49,1.442-1.298,1.24-2.738c-0.196-1.397-0.249-1.727-1.484-5.966l-0.874-0.458l0.582-0.579c-1.182-4.271-1.257-6.961-1.257-6.961c-0.105-0.975,0.049-1.29,0.598-1.537c0.576-0.261,1.117-0.177,1.934-0.125c0.819,0.052,1.425-0.079,1.847-0.316c0.423-0.236,1.583-0.87,1.503-2.163c-0.078-1.292-1.108-2.823-1.951-3.35c-0.844-0.528-1.952-0.317-2.56,0.132c-0.606,0.447-0.843,1.028-1.213,1.212c-0.368,0.185-0.896,0.607-1.45,0.474c-0.554-0.132-0.581-1.372-0.818-2.77c-0.155-0.915-0.276-1.614-0.342-1.989l-0.674-0.254c0.043,0.557,0.535,3.304,0.535,3.304l0.294,1.624c0,0,0,0.007,0,0.02c0.006,0.018,0.009,0.036,0.013,0.05c0.019,0.079,0.049,0.18,0.082,0.289c0.114,0.215,0.37,0.456,0.942,0.502c1.076,0.089,1.772-0.468,2.025-0.709c0.254-0.239,0.86-0.911,0.86-0.911s0.329-0.632,1.253-0.494c0.922,0.14,1.238,0.773,1.403,1.013c0.167,0.242,1.57,1.961,0.672,2.861c-0.039,0.039-0.093,0.089-0.152,0.146c-0.104,0.111-0.245,0.246-0.446,0.399c-0.675,0.517-1.226,0.48-1.678,0.442c-0.453-0.039-0.665-0.07-0.795-0.043l-0.72,0.038c-0.787,0.11-1.224,0.408-1.224,0.408c-1.8,1.065,0.735,9.287,0.735,9.287s0.671,2.029,0.973,2.979c0.301,0.949,0.496,1.625,0.791,3.264c0.295,1.639-0.231,2.092-0.525,2.251c-0.294,0.158-0.984,0.568-1.77,0.604c-0.783,0.034-1.027-0.368-2.371-0.432c-1.345-0.065-2.246,0.345-2.661,0.906c-0.417,0.561-0.913,1.862-0.675,3.4c0.237,1.541,0.504,2.064,1.092,2.748c0.59,0.681,1.165,0.97,1.978,0.696c0.792-0.266,0.764-0.756,1.173-1.164c0.517-0.519,0.855-0.792,2.063-0.821c1.208-0.029,1.979,0.288,2.594,0.784c0.619,0.496,1.934,1.646,2.294,3.356c0.359,1.713,0.424,2.268,0.424,3.676s-0.101,2.978-0.064,4.381c0.036,1.4,0.187,2.841,0.577,3.795c0.386,0.955,0.926,1.755,1.4,2.18c0.475,0.426,0.896,0.438,1.373,0.252c0.475-0.188,1.511-0.771,2.373-1.324c0.861-0.555,0.797-0.99,1.576-1.502c0.875-0.576,1.799-0.605,2.457-0.486c0.661,0.112,1.676,0.631,2.092,1.889C63.059,60.58,63,61.998,63,61.998s0.035,1.186-0.445,1.876c-0.48,0.688-1.272,0.616-1.625,0.545c-0.354-0.071-1.094-0.136-1.094-0.136s-1.451-0.165-2.563,0.094c-1.105,0.258-2.077,1.085-2.73,1.896c-0.652,0.813-0.941,1.57-0.984,2.158c-0.043,0.59,0.027,1.595,0.642,2.572c0.612,0.979,0.712,1.432,1.409,2.827c0.695,1.396,2.15,2.17,2.201,2.206c0.05,0.037,1.388,0.523,1.89,0.949c0.505,0.425,0.555,0.826,0.411,1.208c-0.145,0.381-0.438,1.094-1.604,1.604c-1.166,0.512-2.591,0.523-3.496,0.617c-0.906,0.094-2.651,0.332-3.697,0.834c-1.043,0.503-0.97,1.454-0.97,1.454s-0.028,1.556,1.337,1.983c1.365,0.434,2.64,0,3.201-0.237c0.562-0.238,1.487-0.583,1.487-0.583s1.791-0.631,2.752-0.848c0.965-0.217,1.533-0.323,2.188,0.832c0.652,1.158,1.014,1.886,1.078,2.625c0.064,0.74-0.209,1.148-0.461,1.432c-0.25,0.279-0.217,0.46-0.217,0.46c-0.105,0.873,1.182,0.763,1.182,0.763s0.041-0.004,0.11-0.018c-0.26,0.021-0.499-0.021-0.59-0.178c-0.116-0.202-0.217-0.531,0.146-0.906c0.359-0.374,0.402-0.693,0.402-0.693c0.305-1.439-1.038-3.371-1.354-3.875c-0.315-0.503-0.836-0.791-2.394-0.531c-1.556,0.26-3.386,1.037-3.386,1.037s-1.891,0.995-3.299,0.809c-1.413-0.188-1.701-1.614-1.687-2.063c0.016-0.444,0.304-0.836,1.038-1.122c0.733-0.289,2.464-0.679,4.984-0.809c2.522-0.128,3.458-1.771,3.458-1.771c0.331-0.478,0.923-1.543-0.489-2.338c-1.412-0.789-1.44-0.589-2.116-1.104c-0.68-0.521-1.412-1.153-1.701-2.034c-0.026-0.084-0.07-0.198-0.108-0.291L55.064,72.686L55.064,72.686z"/>
  <path fill="url(#SVGID_32_)" d="M90.412,59.954l0.689,0.108c1.976-1.573,3.869-3.571,3.869-3.571s1.258-1.261,1.889-2.356c0.22-0.381,0.281-0.356,0.271-0.177c0.023-0.09,0.103-0.456-0.038-0.714c-0.094-0.176-0.381,0.288-0.83,0.861c0,0-2.013,2.926-5.798,5.816c-3.786,2.891-4.776,3.771-8.083,5.655c0,0-2.309,1.021-3.914,0.669c-1.246-0.271,0-1.547,0.271-2.699c0.271-1.146,0.063-1.58-0.225-1.807c-0.287-0.225-0.91-0.385-2.142-0.109c0,0-4.709,1.264-6.819,3.307c-1.918,1.854,0.478,2.619,1.021,2.875c0,0,0.78,0.338,0.719,0.672c-0.063,0.336-0.496,0.623-0.733,0.783c-0.239,0.16-3.338,1.977-8.324,2.764c-4.039,0.641-3.26,0.255-7.143,0.654c-3.881,0.399-4.952,0.72-8.068,1.453c-3.116,0.734-4.945,1.537-5.352,2.349c-0.336,0.671,0.479,1.103,0.991,1.407c0.511,0.304,1.423,0.781,1.119,1.293c-0.305,0.512-1.631,1.277-4.874,1.391c-3.243,0.114-4.569-0.336-5.16-1.04c-0.548-0.649-0.08-1.323,0.096-1.946c0,0,0.382-0.814,0.16-1.215c-0.224-0.398-0.737-0.494-1.278-0.559c-0.544-0.064-3.245-0.158-5.337-0.271c-2.372-0.127-5.208-0.211-8.611-0.928c0,0-2.237-0.441-3.69-1.262c-0.096-0.055-0.18-0.107-0.25-0.156c-0.11-0.059-0.194-0.122-0.25-0.209c-0.41-0.432-0.047-0.748-0.186-1.168c-0.121-0.359-0.352-0.878-0.896-1.501c-0.176-0.183-0.428-0.437-0.72-0.713c-0.08-0.069-0.165-0.144-0.254-0.214c-1.276-1.037-1.422-1.149-1.964-1.166c-0.542-0.019-0.235,0.895-0.129,1.246c0.041,0.136,0.139,0.328,0.242,0.508c-0.2-0.364-0.336-0.729-0.257-0.915c0.144-0.337,0.309-0.308,0.309-0.308s0.133-0.053,0.595,0.297c0.463,0.35,1.499,1.078,2.012,1.705c0.512,0.625,0.481,1.18,0.481,1.18s-0.103,0.563,0.451,1.17c0.555,0.604,1.733,1.714,5.859,2.349c0.021,0.005,0.041,0.005,0.06,0.009l0.193-0.549l0.568,0.663c0.006,0,0.01,0.001,0.016,0.002c3.592,0.519,5.544,0.563,5.544,0.563s4.709,0.164,5.982,0.164c1.271,0,1.035,0.664,1.035,0.664s-0.072,0.361-0.225,0.647c-0.153,0.288-0.524,1.365-0.144,1.94c0,0,0.585,1.426,4.382,1.527c0,0,3.324,0.267,5.643-0.688c2.317-0.954,0.224-2.277,0.224-2.277s-0.794-0.483-1.129-0.737c-0.308-0.233-0.184-0.48-0.122-0.646c0.061-0.163,0.297-0.355,0.564-0.492c0.265-0.134,1.241-0.652,5.365-1.722c4.124-1.067,6.587-1.183,6.587-1.183s0.021-0.004,0.062-0.006l0.334-0.656l0.845,0.559c0.732-0.061,1.686-0.129,2.537-0.17c1.691-0.083,4.341-0.475,5.879-0.811c1.539-0.342,3.869-1.059,5.591-1.951c1.724-0.891,1.808-1.519,1.808-1.519s0.328-0.472-0.391-0.995c-0.719-0.521-1.037-0.38-1.672-1.024c-0.638-0.646,0.553-1.619,0.553-1.619s0.615-0.865,4.021-2.177c3.408-1.313,3.98-0.873,4.156-0.728c0.175,0.142,0.195,0.613,0.123,0.933c-0.072,0.316-0.494,1.455-0.721,2.055c-0.227,0.592-0.316,1.402,0.604,1.6c0.924,0.193,2.215-0.009,3.427-0.443c2.893-1.033,3.757-2.295,8.535-5.764c0.011-0.01,0.021-0.016,0.029-0.023L90.412,59.954L90.412,59.954z"/>
</svg>