<?xml version="1.0" encoding="UTF-8" standalone="no"?>
<svg
   height="48"
   viewBox="0 -960 960 960"
   width="48"
   fill="#ffffff"
   version="1.1"
   id="svg1"
   xml:space="preserve"
   xmlns="http://www.w3.org/2000/svg"
   xmlns:svg="http://www.w3.org/2000/svg"><defs
     id="defs1" /><path
     id="path1"
     d="m 376.99219,-841.01562 c -71.33334,0 -131.99219,25 -181.99219,75 -50,50 -75,110.34895 -75,181.01562 0,70.66667 25,131.01562 75,181.01562 50,50.00001 111.00781,75 183.00781,75 30,0 58.33334,-4.86458 85,-14.53124 26.66667,-9.66667 50,-23.13542 70,-40.46876 L 796.01562,-121.01562 840,-165 576.01562,-426.99219 c 18.66667,-23.33333 32.65886,-48.33333 41.99219,-75 9.33334,-26.66666 13.98438,-54.34114 13.98438,-83.00781 0,-8.92468 -0.3797,-17.69402 -1.17188,-26.28906 a 150,150 0 0 1 -58.82812,29.6875 c -0.78666,52.53363 -19.79585,97.59456 -56.99219,135.11718 -38,38.33334 -84.00781,57.5 -138.00781,57.5 -54.66667,10e-6 -101.15886,-19.16666 -139.49219,-57.5 C 199.16667,-484.81771 180,-531 180,-585 c 0,-54 19.16667,-100.18229 57.5,-138.51562 38.33333,-38.33334 84.82552,-57.5 139.49219,-57.5 6.17163,0 12.24048,0.28053 18.20312,0.78124 a 150,150 0 0 1 36.67969,-55.3125 c -17.52392,-3.63355 -35.8328,-5.46874 -54.88281,-5.46874 z m 275.98221,98.01992 a 192.92844,192.92844 0 0 1 -60.68647,-40.92587 192.43749,192.43749 0 0 1 -50.15839,-87.98857 6.8596172,6.8596172 0 0 0 -13.29648,0 192.75115,192.75115 0 0 1 -50.17203,87.98857 193.03754,193.03754 0 0 1 -60.68647,40.92587 c -8.86432,3.81847 -17.97411,6.88689 -27.3021,9.24616 a 6.8459798,6.8459798 0 0 0 0,13.29648 c 9.32799,2.34563 18.4105,5.41405 27.3021,9.23252 a 192.92844,192.92844 0 0 1 60.68647,40.92587 192.45113,192.45113 0 0 1 50.17203,88.00221 6.8459798,6.8459798 0 0 0 13.29648,0 c 2.34563,-9.34163 5.41405,-18.42414 9.23252,-27.31574 a 192.90116,192.90116 0 0 1 40.92587,-60.68647 192.46477,192.46477 0 0 1 88.00221,-50.15839 6.8596172,6.8596172 0 0 0 0,-13.29648 180.6275,180.6275 0 0 1 -27.31574,-9.24616 z" /></svg>
